<?xml version="1.0" encoding="utf-8"?>
<!-- Generator: Adobe Illustrator 19.1.0, SVG Export Plug-In . SVG Version: 6.00 Build 0)  -->
<svg version="1.1" id="Lager_1" xmlns="http://www.w3.org/2000/svg" xmlns:xlink="http://www.w3.org/1999/xlink" x="0px" y="0px" width="1200px" height="475.2px"
	 viewBox="294 160.9 1200 475.2" style="enable-background:new 294 160.9 1200 475.2;" xml:space="preserve">
<style type="text/css">
	.st0{opacity:0.24;fill:#FFFFFF;enable-background:new    ;}
</style>
<g>
	<path class="st0" d="M433,336.1c0-82.1,53.9-151.6,128.2-175.2H316.5l118.7,203.4C433.7,355.1,433,345.7,433,336.1L433,336.1z"/>
	<path class="st0" d="M593.7,505.6c-35.3,0-67.9-11.6-94.3-31.1l94.3,161.6L688,474.5C661.6,494,629,505.6,593.7,505.6L593.7,505.6z
		"/>
	<path class="st0" d="M870.9,160.9c0,0-213.7,0-218.1,0c-124.2,0-153.9,96.5-153.9,141.8c0,20.3,4.3,39.6,12,57.1
		c1.2,2.4,2.4,4.7,3.5,7c14.8,26.9,42.9,45.4,75.5,46.7l0,0l0,0l0,0c1.3,0.1,2.5,0.1,3.8,0.1c1.2,0,2.3,0,3.4-0.1
		c35.4-1.8,63.5-31,63.5-66.9c0-36.9-29.9-66.9-66.8-67c1.2-1.1,2.5-2.2,3.7-3.3c16.5-14,37.9-22.5,61.3-22.5
		c52.3,0,94.8,42.4,94.8,94.8c0,5.3-0.4,10.4-1.3,15.4L870.9,160.9L870.9,160.9z"/>
</g>
</svg>
